<svg xmlns="http://www.w3.org/2000/svg" id="Capa_1" height="512" viewBox="0 0 512 512" width="512"><g><path d="m271 450.474c.001-24.814-20.185-45-44.999-44.999h-121.07c-22.568-.003-41.995-18.343-43.41-41.437-.054-.873-.52-1.608-.52-2.494 0-11.572 4.687-22.896 12.861-31.07l42.114-42.114c5.859-5.859 5.86-15.351 0-21.211-5.859-5.859-15.352-5.859-21.211 0l-42.115 42.114c-13.754 13.754-21.65 32.813-21.65 52.281 0 9.731 2.015 18.997 5.483 27.53 11.014 27.098 37.606 46.4 68.447 46.4h121.07c8.276 0 15 6.724 15 15s-6.724 15.01-15 15.01h-211c-8.29.001-15 6.701-15 14.99 0 8.292 6.709 15.001 15.001 15.001h210.998c24.815-.001 45.001-20.186 45.001-45.001z" fill="#555a6e"></path><path d="m104.931 435.474h121.07c8.276 0 15 6.724 15 15s-6.724 15.01-15 15.01h-211.001c-8.29.001-15 6.701-15 14.99 0 8.292 6.709 15.001 15.001 15.001h210.998c24.815 0 45-20.185 45-45 .001-24.814-20.185-45-44.999-44.999h-121.07c-22.568-.003-41.995-18.343-43.41-41.437l-25.037 25.037c11.015 27.096 37.607 46.398 68.448 46.398z" fill="#463c4b"></path><g><path d="m347.509 226.544-83.027 83.027c-28.315 28.315-77.725 28.345-106.069 0l-40.611-40.604 19.4 61.815c19.819 19.834 46.187 30.762 74.238 30.762s54.419-10.928 74.253-30.762l53.027-53.027z" fill="#463c4b"></path></g><path d="m269.999 248.161.001-71.687-30 3.652v68.034c0 8.292 6.709 15.001 15 15 8.291 0 15-6.709 14.999-14.999z" fill="#463c4b"></path><path d="m507.527 79.934-38.516-38.516c-13.627-13.627-35.057-23.684-60.078-24.793-24.242-1.079-49.058 6.647-67.203 24.792l-116.368 116.352 21.217 21.209 21.217 21.209 116.353-116.352c10.062-10.062 30.403-12.018 42.425.004l38.531 38.516c5.859 5.859 15.351 5.86 21.211 0l21.211-21.211c5.86-5.86 5.859-15.352 0-21.21z" fill="#edf1f9"></path><path d="m384.149 83.835c10.062-10.062 30.403-12.018 42.425.004l38.531 38.516c5.859 5.859 15.351 5.86 21.211 0l21.211-21.211c5.86-5.86 5.859-15.352 0-21.211l-38.516-38.516c-13.627-13.627-35.058-23.683-60.078-24.793l-162.354 162.355 21.217 21.209z" fill="#d8dbf0"></path><g><path d="m158.408 309.574-21.207 21.209 116.699-116.698c-.01.01-.026.013-.036.023z" fill="#463c4b"></path><path d="m349.326 203.501-63.634-63.634-21.209-21.209c-16.978-16.978-46.641-17.007-63.647 0l-10.604 10.604 6.315 27.528-27.525-6.317-21.211 21.211 6.314 27.528-27.526-6.316-53.043 53.043c-5.86 5.86-5.856 15.354 0 21.211l42.432 42.424 21.216 21.211 21.207-21.209 95.456-95.466c.01-.01.026-.013.036-.023 5.63-5.593 15.559-5.592 21.174.023l42.435 42.435 21.211 21.211 10.605-10.605c17.547-17.551 17.547-46.101-.002-63.65z" fill="#f04b37"></path><path d="m158.408 309.574 95.456-95.466c.01-.01.026-.013.036-.023 5.63-5.593 15.559-5.592 21.174.023l42.435 42.435 21.211 21.211 10.605-10.605c17.549-17.549 17.549-46.098 0-63.647l-63.634-63.634-169.705 169.704 21.216 21.211z" fill="#cc2b20"></path></g><path d="m211.546 171.79c5.859-5.859 5.859-15.352 0-21.211l-21.315-21.317-21.211 21.211 21.315 21.317c5.859 5.859 15.351 5.859 21.211 0z" fill="#cc2b20"></path><path d="m169.124 214.212c5.859-5.859 5.859-15.352 0-21.211l-21.315-21.317-21.211 21.211 21.315 21.317c5.859 5.859 15.351 5.859 21.211 0z" fill="#cc2b20"></path><path d="m505.994 247.989-26.001-45.015c-2.681-4.644-7.837-6.965-12.993-6.965s-10.312 2.322-12.993 6.965l-26.016 45.044c-3.926 6.826-5.991 14.59-5.991 22.456 0 24.814 20.186 45 45 45s45-20.186 45-45c0-7.866-2.065-15.63-6.006-22.485z" fill="#ffdf40"></path><path d="m512 270.474c0-7.866-2.065-15.63-6.006-22.485l-26.001-45.015c-2.681-4.644-7.837-6.965-12.993-6.965v119.465c24.814 0 45-20.185 45-45z" fill="#ffbe40"></path></g></svg>