<svg xmlns="http://www.w3.org/2000/svg" id="Layer_1" viewBox="0 0 512 512"><g><g><path clip-rule="evenodd" d="m16.258 228.336h37.264c5.368 0 9.742 4.374 9.742 9.742 0 5.368-4.374 9.742-9.742 9.742h-37.264c-5.368 0-9.742-4.374-9.742-9.742 0-5.368 4.374-9.742 9.742-9.742z" fill="#fd4755" fill-rule="evenodd"></path></g><g><path clip-rule="evenodd" d="m192.21 78.116h204.554 71.858v71.83 283.938h-276.412z" fill="#ffecc7" fill-rule="evenodd"></path></g><g><path clip-rule="evenodd" d="m21.853 395.228h170.357v-117.813h-178.508z" fill="#fd4755" fill-rule="evenodd"></path></g><g><path clip-rule="evenodd" d="m21.853 395.228h72.795v19.314c0 10.651-8.691 19.342-19.314 19.342h-34.14c-10.651 0-19.342-8.691-19.342-19.342v-19.314z" fill="#407093" fill-rule="evenodd"></path></g><g><path clip-rule="evenodd" d="m13.758 278.012-.056.085h.056z" fill="#c4f0f6" fill-rule="evenodd"></path></g><g><path clip-rule="evenodd" d="m192.21 172.611h-92.961c-10.111 0-18.746 4.686-24.341 13.093l-61.207 91.711h178.509z" fill="#7fe6fa" fill-rule="evenodd"></path></g><g><path clip-rule="evenodd" d="m192.21 365.775h-23.716-29.936l-9.259-22.125-9.259-22.126h72.17z" fill="#92160e" fill-rule="evenodd"></path></g><g><path clip-rule="evenodd" d="m40.883 298.405 48.624 11.162-.284 24.17-48.34-17.524z" fill="#fec804" fill-rule="evenodd"></path></g><g><path clip-rule="evenodd" d="m456.38 177.155-65.269 164.478 11.077 43.456 37.832-24.057 65.24-164.478c1.023-2.556-1.562-5.993-5.766-7.64l-33.685-13.378c-4.174-1.647-8.435-.937-9.429 1.619z" fill="#ffd400" fill-rule="evenodd"></path></g><g><path clip-rule="evenodd" d="m472.399 205.046 25.505 10.111 7.356-18.604c1.023-2.556-1.562-5.993-5.766-7.64l-30.873-12.27-2.812-1.108c-4.175-1.647-8.436-.937-9.43 1.619l-7.385 18.604 19.626 7.782z" fill="#f44335" fill-rule="evenodd"></path></g><g><path clip-rule="evenodd" d="m425.819 355.408-10.253-4.061-1.051-.426-23.403-9.288 3.522 13.775 7.555 29.681 37.832-24.057z" fill="#144f87" fill-rule="evenodd"></path></g></g><path d="m39.336 322.572 48.149 17.454c.774.281 1.579.419 2.381.419 1.401 0 2.791-.422 3.975-1.241 1.861-1.287 2.983-3.395 3.013-5.657l.311-24.074c.042-3.289-2.215-6.163-5.421-6.9l-48.461-11.147c-2.074-.48-4.253.017-5.918 1.343-1.665 1.325-2.635 3.338-2.635 5.467v17.766c0 2.941 1.841 5.568 4.606 6.57zm9.369-15.558 34.413 7.916-.111 8.608-34.302-12.434zm180.161-38.982 11.891-11.891-11.891-11.892c-2.729-2.729-2.729-7.153 0-9.882s7.153-2.729 9.882 0l11.892 11.892 11.891-11.892c2.728-2.729 7.153-2.729 9.882 0s2.729 7.153 0 9.882l-11.891 11.892 11.891 11.891c2.729 2.729 2.729 7.154 0 9.883-1.364 1.363-3.153 2.047-4.941 2.047s-3.576-.682-4.941-2.047l-11.891-11.892-11.892 11.892c-1.364 1.364-3.152 2.047-4.941 2.047s-3.576-.682-4.941-2.047c-2.729-2.729-2.729-7.154 0-9.883zm152.246 106.474c0 3.859-3.129 6.988-6.987 6.988h-49.649c-3.859 0-6.987-3.129-6.987-6.988s3.129-6.988 6.987-6.988h49.649c3.858 0 6.987 3.128 6.987 6.988zm-99.033-24.132-27.78 33.383c-1.328 1.595-3.296 2.518-5.371 2.518-.008 0-.015 0-.023 0-2.084-.007-4.055-.943-5.377-2.553l-13.636-16.606c-2.449-2.982-2.016-7.386.966-9.835s7.385-2.017 9.835.966l8.272 10.073 22.373-26.885c2.469-2.967 6.875-3.37 9.841-.901 2.965 2.468 3.369 6.875.9 9.84zm219.037-167.692-26.365-10.44v-93.422c0-3.859-3.129-6.988-6.988-6.988h-275.316c-3.859 0-6.987 3.128-6.987 6.988v87.161h-85.606c-12.317 0-23.277 5.884-30.07 16.142l-26.061 39.335h-26.532c-9.203 0-16.691 7.487-16.691 16.691s7.487 16.691 16.691 16.691h4.259l-12.592 18.601.008.005c-.87 1.285-1.301 2.828-1.192 4.396l8.131 117.08v19.019c0 14.46 11.765 26.226 26.225 26.226h34.004c14.46 0 26.225-11.766 26.225-26.226v-12.277h83.201v31.515c0 3.859 3.129 6.988 6.987 6.988h275.317c3.859 0 6.988-3.129 6.988-6.988v-142.989l36.048-90.842c2.449-6.302-1.701-13.462-9.684-16.666zm-483.925 58.183c-1.498 0-2.716-1.219-2.716-2.716 0-1.472 1.244-2.716 2.716-2.716h17.273l-3.599 5.432zm71.092 173.077c0 6.755-5.495 12.25-12.25 12.25h-34.004c-6.755 0-12.25-5.495-12.25-12.25v-12.277h58.504zm97.176-55.59h-41.802l-12.596-30.099h54.399v30.099zm0-44.075h-64.898c-2.338 0-4.522 1.169-5.817 3.117-1.296 1.946-1.532 4.412-.629 6.569l18.445 44.075c1.088 2.598 3.629 4.29 6.446 4.29h46.453v15.361h-156.148l-7.177-103.342h163.325zm0-43.907h-157.646l12.59-18.599c.006-.008.011-.016.017-.025l.024-.035 40.993-61.871c4.221-6.374 10.762-9.884 18.418-9.884h85.606v90.414zm275.317 155.822h-261.342v-60.852-44.075-235.458h261.342v82.198c-2.091-.026-4.095.332-5.874 1.093-2.722 1.165-4.788 3.224-5.819 5.801-.002.006-.005.013-.008.019l-7.23 18.229c-.041.091-.087.179-.125.273-.037.094-.063.19-.096.285l-18.134 45.717h-99.015c-3.859 0-6.987 3.128-6.987 6.987s3.129 6.987 6.987 6.987h93.472l-33.854 85.349c-.542 1.367-.639 2.871-.277 4.298l1.274 5.01h-60.615c-3.859 0-6.987 3.129-6.987 6.988s3.129 6.988 6.987 6.988h64.169l6.177 24.297c.552 2.171 2.113 3.946 4.195 4.773.831.33 1.706.493 2.576.493 1.311 0 2.614-.369 3.75-1.092l37.682-23.962c1.242-.79 2.203-1.951 2.745-3.32l15.005-37.813v100.787zm-61.116-88.789 52.488-132.33 10.308 4.089-52.475 132.338zm24.318 24.688-17.99 11.441-5.254-20.666zm37.371-76.016c-.026.06-.048.122-.073.183l-25.918 65.314-12.388-4.917 52.478-132.34 12.422 4.927zm31.675-79.823-35.723-14.169 3.98-10.034c.315.059.689.162 1.109.33l33.55 13.285c.436.174.79.369 1.066.552zm-264.618-55.215c-2.449-2.983-2.016-7.386.966-9.835s7.386-2.018 9.835.966l8.271 10.073 22.345-26.855c2.469-2.966 6.874-3.371 9.841-.902s3.371 6.874.903 9.841l-27.752 33.354c-1.328 1.596-3.296 2.518-5.372 2.518-.007 0-.015 0-.022 0-2.084-.007-4.056-.943-5.378-2.553zm89.082-14.251c0-3.859 3.129-6.988 6.987-6.988h101.929c3.859 0 6.987 3.129 6.987 6.988s-3.129 6.988-6.987 6.988h-101.929c-3.859-.001-6.987-3.129-6.987-6.988zm0 19.491c0-3.859 3.129-6.987 6.987-6.987h49.649c3.859 0 6.987 3.128 6.987 6.987s-3.129 6.987-6.987 6.987h-49.649c-3.859.001-6.987-3.128-6.987-6.987zm0 109.624c0-3.859 3.129-6.988 6.987-6.988h49.649c3.859 0 6.987 3.129 6.987 6.988s-3.129 6.988-6.987 6.988h-49.649c-3.859 0-6.987-3.129-6.987-6.988z"></path></svg>