<svg xmlns="http://www.w3.org/2000/svg" xmlns:xlink="http://www.w3.org/1999/xlink" id="Capa_1" x="0px" y="0px" viewBox="0 0 512 512" style="enable-background:new 0 0 512 512;" xml:space="preserve" width="512" height="512"><g>	<g>		<path style="fill:#FD8087;" d="M451.794,504.5H94.371c-11.2,0-20.279-9.079-20.279-20.279v-53.712h319.236
			c15.069,0,29.394,6.55,39.252,17.947l29.333,33.914C469.408,491.037,463.252,504.5,451.794,504.5z"></path>		<path style="fill:#FE646F;" d="M461.913,482.371l-29.333-33.914c-9.858-11.397-24.183-17.947-39.252-17.947h-30.061
			c15.069,0,29.394,6.55,39.252,17.947l29.333,33.914c7.495,8.666,1.339,22.129-10.118,22.129h30.061
			C463.252,504.5,469.408,491.037,461.913,482.371z"></path>		<rect x="132.349" y="181.847" style="fill:#FE646F;" width="115.832" height="248.662"></rect>		<rect x="218.12" y="181.847" style="fill:#FD4755;" width="30.061" height="248.662"></rect>		<path style="fill:#EAF6FF;" d="M248.181,298.596h-24.28c-12.279,0-22.233,9.954-22.233,22.233v109.681h46.513V298.596z"></path>		<path style="fill:#EAF6FF;" d="M248.181,298.596h-24.28c-12.279,0-22.233,9.954-22.233,22.233v109.681h46.513V298.596z"></path>		<path style="fill:#C8EFFE;" d="M223.901,298.596c-2,0-3.937,0.268-5.781,0.764v131.149h30.061V298.596H223.901z"></path>		<path style="fill:#99E6FC;" d="M256.272,135.283H124.258c-7.442,0-13.475-6.033-13.475-13.475V100.27h158.963v21.539
			C269.746,129.25,263.714,135.283,256.272,135.283z"></path>		<path style="fill:#838383;" d="M280.663,7.5H99.867C86.238,7.5,75.19,18.548,75.19,32.176v43.417
			c0,13.628,11.048,24.676,24.676,24.676h180.796c13.628,0,24.676-11.048,24.676-24.676V32.176
			C305.339,18.548,294.291,7.5,280.663,7.5z"></path>		<path style="fill:#62DBFB;" d="M239.686,100.27v21.539c0,7.442-6.033,13.475-13.474,13.475h30.061
			c7.442,0,13.475-6.033,13.475-13.475V100.27H239.686z"></path>		<path style="fill:#777676;" d="M280.663,7.5h-30.061c13.628,0,24.676,11.048,24.676,24.676v43.417
			c0,13.628-11.048,24.676-24.676,24.676h30.061c13.628,0,24.676-11.048,24.676-24.676V32.176
			C305.339,18.548,294.291,7.5,280.663,7.5z"></path>		<rect x="173.308" y="135.283" style="fill:#838383;" width="33.913" height="46.564"></rect>		<path style="fill:#8795DE;" d="M74.092,430.509v-49.866c0-8.158,6.614-14.772,14.772-14.772h30.068
			c8.087,0,15.344,4.969,18.267,12.51l20.209,52.129H74.092z"></path>		<g>			<path style="fill:#8795DE;" d="M412.95,326.956c-1.173-0.157-2.345-0.455-3.496-0.906L222.35,252.91
				c-18.32-7.255-7.401-35.15,10.967-28.055l187.103,73.14C436.848,304.263,430.113,329.454,412.95,326.956z"></path>		</g>	</g>	<g>		<path style="fill:none;stroke:#000000;stroke-width:15;stroke-linecap:round;stroke-linejoin:round;stroke-miterlimit:10;" d="
			M340.781,430.509h52.547c15.069,0,29.394,6.55,39.252,17.947l29.333,33.914c7.495,8.666,1.339,22.129-10.118,22.129H94.371
			c-11.2,0-20.279-9.079-20.279-20.279v-53.712h231.247"></path>					<polyline style="fill:none;stroke:#000000;stroke-width:15;stroke-linecap:round;stroke-linejoin:round;stroke-miterlimit:10;" points="
			132.35,371.19 132.35,181.85 248.18,181.85 248.18,230.66 		"></polyline>					<polyline style="fill:none;stroke:#000000;stroke-width:15;stroke-linecap:round;stroke-linejoin:round;stroke-miterlimit:10;" points="
			132.35,430.51 157.41,430.51 248.18,430.51 248.18,263.01 		"></polyline>		<path style="fill:none;stroke:#000000;stroke-width:15;stroke-linecap:round;stroke-linejoin:round;stroke-miterlimit:10;" d="
			M248.181,298.596h-24.28c-12.279,0-22.233,9.954-22.233,22.233v109.681h46.513V298.596z"></path>		<path style="fill:none;stroke:#000000;stroke-width:15;stroke-linecap:round;stroke-linejoin:round;stroke-miterlimit:10;" d="
			M256.272,135.283H124.258c-7.442,0-13.475-6.033-13.475-13.475V100.27h158.963v21.539
			C269.746,129.25,263.714,135.283,256.272,135.283z"></path>		<path style="fill:none;stroke:#000000;stroke-width:15;stroke-linecap:round;stroke-linejoin:round;stroke-miterlimit:10;" d="
			M280.663,7.5H99.867C86.238,7.5,75.19,18.548,75.19,32.176v43.417c0,13.628,11.048,24.676,24.676,24.676h180.796
			c13.628,0,24.676-11.048,24.676-24.676V32.176C305.339,18.548,294.291,7.5,280.663,7.5z"></path>					<line style="fill:none;stroke:#000000;stroke-width:15;stroke-linecap:round;stroke-linejoin:round;stroke-miterlimit:10;" x1="230.225" y1="53.885" x2="75.19" y2="53.885"></line>					<line style="fill:none;stroke:#000000;stroke-width:15;stroke-linecap:round;stroke-linejoin:round;stroke-miterlimit:10;" x1="305.339" y1="53.885" x2="265.288" y2="53.885"></line>					<line style="fill:none;stroke:#000000;stroke-width:15;stroke-linecap:round;stroke-linejoin:round;stroke-miterlimit:10;" x1="269.746" y1="181.847" x2="110.783" y2="181.847"></line>					<rect x="173.308" y="135.283" style="fill:none;stroke:#000000;stroke-width:15;stroke-linecap:round;stroke-linejoin:round;stroke-miterlimit:10;" width="33.913" height="46.564"></rect>		<path style="fill:none;stroke:#000000;stroke-width:15;stroke-linecap:round;stroke-linejoin:round;stroke-miterlimit:10;" d="
			M74.092,430.509v-49.866c0-8.158,6.614-14.772,14.772-14.772h30.068c8.087,0,15.344,4.969,18.267,12.51l20.209,52.129H74.092z"></path>					<line style="fill:none;stroke:#000000;stroke-width:15;stroke-linecap:round;stroke-linejoin:round;stroke-miterlimit:10;" x1="109.226" y1="398.19" x2="109.226" y2="398.19"></line>					<line style="fill:none;stroke:#000000;stroke-width:15;stroke-linecap:round;stroke-linejoin:round;stroke-miterlimit:10;" x1="88.864" y1="365.871" x2="46.802" y2="270.639"></line>		<g>			<path style="fill:none;stroke:#000000;stroke-width:15;stroke-linecap:round;stroke-linejoin:round;stroke-miterlimit:10;" d="
				M412.95,326.956c-1.173-0.157-2.345-0.455-3.496-0.906L222.35,252.91c-18.32-7.255-7.401-35.15,10.967-28.055l187.103,73.14
				C436.848,304.263,430.113,329.454,412.95,326.956z"></path>		</g>					<line style="fill:none;stroke:#000000;stroke-width:15;stroke-linecap:round;stroke-linejoin:round;stroke-miterlimit:10;" x1="339.223" y1="298.596" x2="305.339" y2="430.509"></line>	</g></g></svg>