<svg xmlns="http://www.w3.org/2000/svg" id="Layer_35" height="512" viewBox="0 0 64 64" width="512"><path d="m62 2v4h-15-10.79c-1.41 0-2.75.59-3.7 1.63l-3.3 3.64s0 0-.01.01c-.93.29-1.77.8-2.44 1.48-1.09 1.08-1.76 2.58-1.76 4.24v10.76c-1.37-1.1-3.11-1.76-5-1.76-3.73 0-6.86 2.55-7.75 6h-8.25v-4.24c0-1.11.18-2.17.52-3.17.9.87 2.13 1.41 3.48 1.41 2.76 0 5-2.24 5-5 0-1.14-.4-2.18-1.04-3.03.24-.06.48-.1.72-.13l6.32-.84 10.01-11.55c1.9-2.19 4.66-3.45 7.56-3.45z" fill="#b4dd7f"></path><path d="m11.96 17.97c.64.85 1.04 1.89 1.04 3.03 0 2.76-2.24 5-5 5-1.35 0-2.58-.54-3.48-1.41 1.1-3.32 3.9-5.89 7.44-6.62z" fill="#ff826e"></path><path d="m32 17h6.34l.01.01c-2.05 1.64-3.35 4.16-3.35 6.99 0 4.58 3.43 8.37 7.86 8.93h-.86c-4.42.02-8.42 1.83-11.32 4.73-.11.11-.22.22-.32.34h-3.44c.69-1.17 1.08-2.54 1.08-4 0-2.53-1.17-4.78-3-6.24v-10.76h5z" fill="#a0d468"></path><path d="m50 17h12v21h-4l-.11.1c-2.91-3.2-7.12-5.21-11.8-5.19h-.85c4.38-.6 7.76-4.36 7.76-8.91 0-2.73-1.22-5.18-3.15-6.83z" fill="#a0d468"></path><path d="m62 6v11h-12l-.15.17c-.87-.75-1.89-1.34-3.01-1.7l.16-.47v-9z" fill="#69d6f4"></path><path d="m35 14c0-1.66-1.34-3-3-3h-1c-.62 0-1.22.09-1.79.27l3.3-3.64c.95-1.04 2.29-1.63 3.7-1.63h10.79v9l-.16.47c-.89-.31-1.85-.47-2.84-.47-2.14 0-4.11.75-5.65 2.01l-.01-.01h-6.34c.83 0 1.58-.34 2.12-.88s.88-1.29.88-2.12z" fill="#69d6f4"></path><path d="m32 11c1.66 0 3 1.34 3 3 0 .83-.34 1.58-.88 2.12s-1.29.88-2.12.88h-2-5c0-1.66.67-3.16 1.76-4.24.67-.68 1.51-1.19 2.44-1.48.01-.01.01-.01.01-.01.57-.18 1.17-.27 1.79-.27z" fill="#ccd1d9"></path><path d="m13.08 38h-9.08c-1.1 0-2-.9-2-2v-2c0-1.1.9-2 2-2h8.25c-.16.64-.25 1.31-.25 2 0 1.46.39 2.83 1.08 4z" fill="#ccd1d9"></path><path d="m12.25 32c.89-3.45 4.02-6 7.75-6 1.89 0 3.63.66 5 1.76 1.83 1.46 3 3.71 3 6.24 0 1.46-.39 2.83-1.08 4-1.37 2.39-3.96 4-6.92 4s-5.55-1.61-6.92-4c-.69-1.17-1.08-2.54-1.08-4 0-.69.09-1.36.25-2z" fill="#838f9b"></path><circle cx="20" cy="34" fill="#e6e9ed" r="4"></circle><path d="m61.98 48h-5.98v-2c0-1.1-.9-2-2-2v-3c0-.55-.45-1-1-1h-4c-.55 0-1 .45-1 1v3h-3-5v-3c0-.55-.45-1-1-1h-4c-.55 0-1 .45-1 1v3c-1.1 0-2 .9-2 2v2h-5.97c.76-4.72 1.98-7.23 4.33-10 .1-.12.21-.23.32-.34 2.9-2.9 6.9-4.71 11.32-4.73h.86c.37.05.75.07 1.14.07.42 0 .83-.03 1.24-.09h.85c4.68-.02 8.89 1.99 11.8 5.19 2.4 2.64 3.92 6.1 4.09 9.9z" fill="#fcd770"></path><path d="m52.5 48h3.5v-2c0-1.1-.9-2-2-2h-6-3-5-6c-1.1 0-2 .9-2 2v2h3.5c1.38 0 2.5 1.12 2.5 2.5 0 .69-.28 1.32-.73 1.77s-1.08.73-1.77.73h-3.5v7c0 1.1.9 2 2 2h9 11c1.1 0 2-.9 2-2v-7h-3.5c-1.38 0-2.5-1.12-2.5-2.5 0-.69.28-1.32.73-1.77s1.08-.73 1.77-.73z" fill="#aab2bd"></path><path d="m40 41v3h-6v-3c0-.55.45-1 1-1h4c.55 0 1 .45 1 1z" fill="#e6e9ed"></path><path d="m54 41v3h-6v-3c0-.55.45-1 1-1h4c.55 0 1 .45 1 1z" fill="#e6e9ed"></path><g fill="#f0d0b4"><path d="m35.5 48c1.38 0 2.5 1.12 2.5 2.5 0 .69-.28 1.32-.73 1.77s-1.08.73-1.77.73h-3.5-2c-2.21 0-4-1.79-4-4 0-.34.01-.67.03-1h5.97z"></path><path d="m61.98 48c.01.25.02.5.02.75v.25c0 2.21-1.79 4-4 4h-2-3.5c-1.38 0-2.5-1.12-2.5-2.5 0-.69.28-1.32.73-1.77s1.08-.73 1.77-.73h3.5z"></path><path d="m49.85 17.17c1.93 1.65 3.15 4.1 3.15 6.83 0 4.55-3.38 8.31-7.76 8.91l-2.38.02c-4.43-.56-7.86-4.35-7.86-8.93 0-2.83 1.3-5.35 3.35-6.99 1.54-1.26 3.51-2.01 5.65-2.01.99 0 1.95.16 2.84.47 1.12.36 2.14.95 3.01 1.7z"></path></g><path d="m20 29c-2.757 0-5 2.243-5 5s2.243 5 5 5 5-2.243 5-5-2.243-5-5-5zm0 8c-1.654 0-3-1.346-3-3s1.346-3 3-3 3 1.346 3 3-1.346 3-3 3z"></path><path d="m63 1h-26.434c-3.193 0-6.223 1.384-8.313 3.796l-9.761 11.263-5.946.793c-5.442.725-9.546 5.413-9.546 10.903v3.429c-1.161.414-2 1.514-2 2.816v2c0 1.654 1.346 3 3 3h8.522c1.617 2.41 4.365 4 7.478 4s5.862-1.59 7.478-4h.792c-2.047 2.816-3.271 6.267-3.27 10 0 2.757 2.244 5 5.001 5h.999v6c0 1.654 1.346 3 3 3h20c1.654 0 3-1.346 3-3v-6h1.001c1.335 0 2.591-.521 3.535-1.465s1.464-2.2 1.464-3.535v-.25c-.001-3.549-1.105-6.92-3.126-9.75h3.126zm-43.492 16.941 10.257-11.835c1.71-1.974 4.189-3.106 6.801-3.106h24.434v2h-24.79c-1.685 0-3.302.715-4.438 1.962l-3.152 3.464c-2.69.977-4.62 3.551-4.62 6.574v1 7.95c-1.207-.603-2.562-.95-4-.95-3.909 0-7.235 2.51-8.475 6h-6.525v-3.245c0-.516.049-1.022.134-1.517.875.482 1.848.762 2.866.762 3.309 0 6-2.691 6-6 0-.785-.173-1.544-.474-2.261zm25.596 13.974-2.145.01c-3.92-.514-6.959-3.867-6.959-7.925 0-4.411 3.589-8 8-8s8 3.589 8 8c0 4.036-3.007 7.374-6.896 7.915zm-14.104-19.915h1c1.103 0 2 .897 2 2s-.897 2-2 2h-2-3.899c.464-2.279 2.484-4 4.899-4zm1-2h-.289l1.54-1.692c.757-.831 1.836-1.308 2.959-1.308h9.79v7.202c-.646-.132-1.315-.202-2-.202-2.241 0-4.305.75-5.974 2h-2.582c.344-.591.556-1.268.556-2 0-2.206-1.794-4-4-4zm18 6v.019c-.617-.465-1.284-.865-2-1.178v-7.841h13v9zm-38.491 3.116c.322.584.491 1.225.491 1.884 0 2.206-1.794 4-4 4-.826 0-1.613-.264-2.282-.735 1.045-2.463 3.158-4.387 5.791-5.149zm-7.509 17.884c-.551 0-1-.448-1-1v-2c0-.552.449-1 1-1h7.059c-.037.329-.059.662-.059 1 0 1.053.191 2.06.525 3zm16 4c-3.86 0-7-3.141-7-7s3.14-7 7-7 7 3.141 7 7-3.14 7-7 7zm8.475-4c.334-.94.525-1.947.525-3 0-2.656-1.164-5.04-3-6.689v-9.311h4 2 4.019c-1.261 1.674-2.019 3.748-2.019 6 0 3.466 1.774 6.524 4.46 8.318-3.286.712-6.225 2.372-8.511 4.682zm26.525 23c0 .552-.449 1-1 1h-20c-.551 0-1-.448-1-1v-6h2.5c1.93 0 3.5-1.57 3.5-3.5s-1.57-3.5-3.5-3.5h-2.5v-1c0-.552.449-1 1-1h20c.551 0 1 .448 1 1v1h-2.5c-1.93 0-3.5 1.57-3.5 3.5s1.57 3.5 3.5 3.5h2.5zm-16-17h-4v-2h4zm14 0h-4v-2h4zm8 6c0 .802-.312 1.555-.878 2.121-.567.567-1.32.879-2.121.879h-5.501c-.827 0-1.5-.673-1.5-1.5s.673-1.5 1.5-1.5h6.5v-2h-2v-1c0-1.302-.839-2.402-2-2.816v-2.184c0-1.103-.897-2-2-2h-4c-1.103 0-2 .897-2 2v2h-6v-2c0-1.103-.897-2-2-2h-4c-1.103 0-2 .897-2 2v2.184c-1.161.414-2 1.514-2 2.816v1h-2v2h6.5c.827 0 1.5.673 1.5 1.5s-.673 1.5-1.5 1.5h-5.499c-1.654 0-3-1.346-3.001-3-.002-8.274 6.727-15.035 15-15.071l.827-.004c.385.045.775.075 1.173.075.422 0 .836-.035 1.245-.086l.847-.004h.068c3.951 0 7.667 1.533 10.469 4.323 2.818 2.805 4.371 6.54 4.371 10.517zm-2.792-12c-.058-.06-.109-.125-.168-.185-2.347-2.336-5.26-3.889-8.426-4.546 2.645-1.801 4.386-4.835 4.386-8.269 0-2.252-.758-4.326-2.019-6h9.019v19z"></path><path d="m45.895 47.447-1.79-.894-3.723 7.447h4l-2.277 4.553 1.79.894 3.723-7.447h-4z"></path></svg>