<svg xmlns="http://www.w3.org/2000/svg" id="Layer_1" viewBox="0 0 512 512"><g><g><g clip-rule="evenodd" fill-rule="evenodd"><path d="m25.232 461.723h382.222l79.316-10.185c5.041-.647 9.231-4.878 9.231-10.856v-63.622c0-12.874-9.495-17.522-17.654-18.129l-48.625-4.196-40.288-43.138c-2.415-2.586-5.315-4.139-8.853-4.139h-157.908c-2.617 0-4.989.603-6.953 2.331l-60.11 52.89-114.447 10.828c-13.778 1.303-25.162 17.382-25.162 33.655v43.705c0 5.977 4.148 10.856 9.231 10.856z" fill="#f76c82"></path><ellipse cx="101.426" cy="450.184" fill="#636c77" rx="45.793" ry="45.793" transform="matrix(.707 -.707 .707 .707 -288.622 203.575)"></ellipse><path d="m101.425 466.157c8.798 0 15.973-7.175 15.973-15.973s-7.176-15.974-15.973-15.974c-8.798 0-15.973 7.176-15.973 15.974s7.176 15.973 15.973 15.973z" fill="#e4e8eb"></path><ellipse cx="407.454" cy="450.184" fill="#636c77" rx="45.793" ry="45.793" transform="matrix(.972 -.234 .234 .972 -94.15 108.018)"></ellipse><path d="m407.454 466.157c8.798 0 15.973-7.175 15.973-15.973s-7.175-15.974-15.973-15.974-15.973 7.176-15.973 15.974c-.001 8.798 7.175 15.973 15.973 15.973z" fill="#e4e8eb"></path><path d="m217.557 307.551-61.932 55.114 220.831-.156c2.751-.002 5.886-2.397 4.993-5l-15.456-45.052c-.447-1.304-.492-2.564-1.467-3.538s-2.163-1.462-3.54-1.462z" fill="#a4d4ff"></path></g></g><path clip-rule="evenodd" d="m407.46 459.18c-4.951 0-8.979-4.02-8.979-8.971 0-4.949 4.029-8.98 8.979-8.98 4.937 0 8.97 4.031 8.97 8.98 0 4.951-4.034 8.971-8.97 8.971zm0-31.951c-12.669 0-22.98 10.31-22.98 22.98s10.311 22.97 22.98 22.97c12.66 0 22.971-10.3 22.971-22.97 0-12.671-10.312-22.98-22.971-22.98zm-306.03 31.951c-4.951 0-8.979-4.02-8.979-8.971 0-4.949 4.029-8.98 8.979-8.98 4.951 0 8.97 4.031 8.97 8.98 0 4.951-4.019 8.971-8.97 8.971zm0-31.951c-12.669 0-22.98 10.31-22.98 22.98s10.311 22.97 22.98 22.97c12.66 0 22.971-10.3 22.971-22.97 0-12.671-10.312-22.98-22.971-22.98zm30.486-281.85c0-28.52 9.935-56.38 27.974-78.421 14.697-17.98 34.237-31.51 56.018-38.999l-10.208-5.901c-3.351-1.929-4.49-6.212-2.56-9.558 1.93-3.351 6.208-4.49 9.558-2.56l26.011 15.008c3.351 1.944 4.49 6.222 2.56 9.571l-15.022 26c-1.93 3.351-6.208 4.5-9.558 2.57-3.351-1.94-4.489-6.219-2.56-9.569l7.309-12.652c-44.389 14.801-75.52 57.032-75.52 104.511 0 3.87-3.139 7-6.998 7-3.869 0-7.004-3.13-7.004-7zm234.171 0c0-3.861 3.13-7.001 7.003-7.001 3.868 0 6.998 3.14 6.998 7.001 0 28.6-9.968 56.521-28.059 78.599-14.702 17.941-34.191 31.41-55.91 38.85l10.18 5.881c3.351 1.93 4.499 6.21 2.57 9.559-1.299 2.241-3.652 3.5-6.071 3.5-1.191 0-2.391-.3-3.501-.939l-25.997-15.021c-3.351-1.929-4.499-6.21-2.57-9.56l15.017-26.009c1.93-3.34 6.212-4.491 9.563-2.561 3.346 1.939 4.499 6.221 2.556 9.56l-7.328 12.701c44.409-14.701 75.549-56.91 75.549-104.56zm-119.848-69.751c-2.951-2.498-7.37-2.14-9.874.811-2.494 2.951-2.127 7.37.814 9.87l11.817 10.021v32.149l-22.74-22.73 1.271-15.45c.32-3.851-2.546-7.23-6.401-7.55-3.836-.301-7.229 2.55-7.549 6.409l-.287 3.61-4.391-4.39c-2.744-2.73-7.172-2.739-9.902 0-2.739 2.73-2.739 7.161 0 9.9l4.391 4.39-3.619.291c-3.85.32-6.711 3.701-6.401 7.55.32 3.86 3.69 6.701 7.549 6.41l15.45-1.271 22.731 22.73h-32.153l-10.029-11.809c-2.49-2.951-6.909-3.309-9.86-.82-2.951 2.509-3.308 6.92-.809 9.87l2.339 2.759h-6.207c-3.864 0-7.003 3.14-7.003 7.001 0 3.87 3.139 7 7.003 7h6.207l-2.339 2.769c-2.499 2.951-2.141 7.361.809 9.861 2.951 2.501 7.361 2.14 9.86-.81l10.029-11.819h32.155l-22.731 22.739-15.45-1.269c-3.859-.311-7.229 2.55-7.549 6.409-.31 3.851 2.551 7.23 6.401 7.55l3.619.291-4.391 4.39c-2.739 2.741-2.739 7.169 0 9.899 2.729 2.73 7.158 2.73 9.902 0l4.391-4.39.287 3.61c.32 3.861 3.713 6.701 7.549 6.411 3.855-.32 6.721-3.701 6.401-7.55l-1.271-15.449 22.74-22.74v32.16l-11.817 10.019c-2.941 2.5-3.308 6.92-.814 9.87 2.504 2.951 6.923 3.311 9.874.811l2.758-2.34v6.199c0 3.87 3.144 6.999 7.003 6.999 3.869 0 6.998-3.129 6.998-6.999v-6.201l2.772 2.34c2.937 2.5 7.356 2.14 9.859-.811 2.499-2.95 2.137-7.37-.809-9.87l-11.822-10.019v-32.16l22.74 22.74-1.271 15.449c-.32 3.85 2.551 7.23 6.401 7.55 3.859.3 7.243-2.55 7.549-6.411l.301-3.61 4.391 4.39c2.729 2.741 7.158 2.741 9.902 0 2.73-2.73 2.73-7.159 0-9.899l-4.391-4.39 3.61-.291c3.85-.32 6.72-3.699 6.401-7.55-.311-3.859-3.704-6.728-7.553-6.409l-15.436 1.269-22.74-22.739h32.157l10.02 11.819c2.504 2.95 6.923 3.311 9.874.81 2.946-2.5 3.308-6.91.809-9.861l-2.353-2.769h6.212c3.868 0 6.998-3.131 6.998-7 0-3.861-3.13-7.001-6.998-7.001h-6.212l2.353-2.759c2.499-2.95 2.137-7.361-.809-9.87-2.951-2.489-7.37-2.131-9.874.82l-10.02 11.809h-32.161l22.74-22.73 15.436 1.271c3.849.299 7.243-2.55 7.553-6.41.32-3.85-2.551-7.231-6.401-7.55l-3.61-.291 4.391-4.39c2.73-2.739 2.73-7.17 0-9.9-2.744-2.739-7.172-2.739-9.902 0l-4.391 4.39-.301-3.61c-.306-3.859-3.699-6.71-7.549-6.409-3.85.32-6.72 3.699-6.401 7.55l1.271 15.45-22.74 22.73v-32.147l11.822-10.021c2.946-2.5 3.308-6.92.809-9.87-2.504-2.95-6.909-3.309-9.859-.811l-2.772 2.34v-6.199c0-3.869-3.13-7-6.998-7-3.859 0-7.003 3.131-7.003 7v6.199zm242.76 365.071v-63.62c0-8.519-6.071-10.769-11.168-11.149l-48.714-4.201c-1.718-.149-3.327-.93-4.509-2.199l-40.29-43.131c-1.581-1.689-2.772-1.919-3.742-1.919h-7.84l15.709 45.63c.729 2.13.391 4.5-.918 6.34-1.308 1.84-3.431 2.93-5.69 2.94l-225.902.311-114.119 10.799c-9.85.929-18.815 13.65-18.815 26.689v43.699c0 2.32 1.346 3.861 2.226 3.861h23.611c-.132-1.5-.207-3.011-.207-4.541 0-29.11 23.686-52.8 52.799-52.8 29.108 0 52.79 23.689 52.79 52.8 0 1.529-.08 3.041-.212 4.541h200.86c-.132-1.5-.207-3.011-.207-4.541 0-29.11 23.686-52.8 52.799-52.8 28.341 0 51.519 22.459 52.728 50.509l25.691-3.298c1.548-.2 3.12-1.49 3.12-3.92zm-81.539 48.301c21.39 0 38.789-17.4 38.789-38.791 0-21.389-17.399-38.8-38.789-38.8-21.399 0-38.803 17.411-38.803 38.8 0 21.391 17.404 38.791 38.803 38.791zm-306.03 0c21.39 0 38.788-17.4 38.788-38.791 0-21.389-17.399-38.8-38.788-38.8s-38.803 17.411-38.803 38.8c0 21.391 17.413 38.791 38.803 38.791zm118.911-173.931c.198-.18.668-.59 2.329-.59h54.587v41.05l-103.07.149zm151.676 40.33-80.758.11v-41.03h66.682zm106.93-3.42-45.947-3.971-38.455-41.17c-3.878-4.16-8.716-6.359-13.968-6.359h-157.906c-4.603 0-8.504 1.37-11.572 4.079l-58.409 51.389-112.182 10.613c-17.079 1.619-31.508 20.22-31.508 40.629v43.699c0 9.85 7.28 17.86 16.227 17.86h26.773c7.53 19.99 26.84 34.25 49.429 34.25 22.59 0 41.899-14.26 49.42-34.25h207.181c7.521 19.99 26.84 34.25 49.429 34.25 24.981 0 45.947-17.45 51.401-40.801l28.797-3.699c8.89-1.14 15.342-8.62 15.342-17.801v-63.62c.001-17.207-13.002-24.277-24.052-25.098z" fill-rule="evenodd"></path></g></svg>