<svg xmlns="http://www.w3.org/2000/svg" id="_x3C_Layer_x3E_" height="512" viewBox="0 0 32 32" width="512"><g id="Navigation_x2C__contactless_x2C__app_x2C__mobile_x2C__taxi_x2C__transport_x2C__car"><g id="XMLID_2232_"><g id="XMLID_2233_"><path id="XMLID_900_" d="m28.5 30.5h-1c-.553 0-1-.447-1-1v-3h3v3c0 .553-.447 1-1 1z" fill="#78909c"></path></g><g id="XMLID_2234_"><path id="XMLID_925_" d="m25.509 14.861c-1.193-.148-3.37-.361-6.009-.361s-4.815.213-6.009.361c-.548.067-1.133.563-1.308 1.087l-2.183 6.552h19l-2.184-6.552c-.174-.523-.759-1.019-1.307-1.087z" fill="#fff"></path></g><g id="XMLID_2235_"><path id="XMLID_948_" d="m12.183 22.5h16.817l-2.184-6.552c-.001-.002-.002-.004-.003-.006-1.031-.204-2.121-.317-3.251-.317-5.933 0-10.809 3.016-11.379 6.875z" fill="#cfd8dc"></path></g><g id="XMLID_2236_"><path id="XMLID_949_" d="m8.5 27.5v-4c0-3.25 4.75-3 11-3s11-.25 11 3v4z" fill="#ead960"></path></g><g id="XMLID_2237_"><path id="XMLID_950_" d="m26 23c1.104 0 2-.896 2-2v-.079c-1.988-.498-5.009-.421-8.5-.421-5.907 0-10.468-.219-10.952 2.5z" fill="#fff176"></path></g><g id="XMLID_2238_"><path id="XMLID_951_" d="m14.5 27.5v-2c0-1.104.896-2 2-2h6c1.104 0 2 .896 2 2v2z" fill="#78909c"></path></g><g id="XMLID_2239_"><path id="XMLID_952_" d="m30.5 23.5v2h-4v-1c0-.55.45-1 1-1z" fill="#fff"></path></g><g id="XMLID_2240_"><path id="XMLID_953_" d="m12.5 24.5v1h-4v-2h3c.55 0 1 .45 1 1z" fill="#fff"></path></g><g id="XMLID_2224_"><g id="XMLID_2250_"><path id="XMLID_955_" d="m20.508 3.879c-.629-.54-1.578-.464-2.114.165l-4.916 5.75c-.539.63-.465 1.576.165 2.114.282.242.629.36.974.36.424 0 .845-.179 1.141-.525l4.916-5.75c.538-.63.464-1.576-.166-2.114z" fill="#eac89b"></path></g><g id="XMLID_2251_"><path id="XMLID_956_" d="m16.959 22.291c-1.31 3.834-2.728 5.788-5.467 6.148l.008 2.561h-7.5l5.459-14.208 8.5-1.291z" fill="#eac89b"></path></g><g id="XMLID_2252_"><path id="XMLID_957_" d="m17.5 22.5c0 1.1-.9 2-2 2h-9c-1.1 0-2-.9-2-2v-19c0-1.1.9-2 2-2h9c1.1 0 2 .9 2 2z" fill="#fff"></path></g><g id="XMLID_2253_"><path id="XMLID_958_" d="m17.5 23.578v-20.54c-.122-.023-.372-.038-.5-.038h-10c-.553 0-1 .447-1 1v20c0 .158.023.311.059.459h10.577c.195-.331.571-.624.864-.881z" fill="#eceff1"></path></g><g id="XMLID_2254_"><path id="XMLID_959_" d="m5 4h12.5v18h-12.5z" fill="#80d8ff"></path></g><g id="XMLID_2255_"><path id="XMLID_960_" d="m5 4h1v18h-1z" fill="#9fe6ff"></path></g><g id="XMLID_2256_"><path id="XMLID_961_" d="m8.689 26.03c-1.014-7.48-4.189-8.729-4.189-8.729v-1.992l.084-2.434c-.292-4.125-2.516-2.892-3.084-3.338v18.963 2.5h7.5 2.5v-2.5c-1.423 0-2.619-1.061-2.811-2.47z" fill="#ffe0b2"></path></g><g id="XMLID_2257_"><path id="XMLID_962_" d="m18.96 10.26c.63.54.7 1.49.16 2.12l-.17.21c-.29.35-.71.53-1.14.53-.34 0-.69-.12-.97-.36-.63-.54-.71-1.48-.17-2.11l.18-.22c.53-.63 1.48-.71 2.11-.17z" fill="#ffe0b2"></path></g><g id="XMLID_2258_"><path id="XMLID_963_" d="m19.3 13.63c.63.53.71 1.48.17 2.11l-.76.88c-.3.34-.72.52-1.14.52-.35 0-.69-.12-.97-.36-.63-.54-.71-1.48-.17-2.11l.76-.88c.53-.63 1.48-.7 2.11-.16z" fill="#ffe0b2"></path></g><g id="XMLID_2259_"><path id="XMLID_964_" d="m19.26 17.74c.63.54.7 1.49.16 2.12l-.76.87c-.29.35-.71.53-1.14.53-.34 0-.69-.12-.97-.36-.63-.54-.71-1.49-.17-2.12l.76-.87c.54-.63 1.49-.71 2.12-.17z" fill="#ffe0b2"></path></g></g><g id="XMLID_2271_"><path id="XMLID_954_" d="m11 6.444c-1.933 0-3.5 1.507-3.5 3.366 0 2.856 3.5 6.745 3.5 6.745s3.5-3.889 3.5-6.745c0-1.859-1.567-3.366-3.5-3.366z" fill="#ff8a80"></path></g><g id="XMLID_2273_"><circle id="XMLID_965_" cx="11" cy="9.944" fill="#fff" r="1"></circle></g></g><g id="XMLID_2241_"><g id="XMLID_2242_"><path id="XMLID_966_" d="m28.5 31h-1c-.827 0-1.5-.673-1.5-1.5v-2c0-.276.224-.5.5-.5s.5.224.5.5v2c0 .276.224.5.5.5h1c.276 0 .5-.224.5-.5v-2c0-.276.224-.5.5-.5s.5.224.5.5v2c0 .827-.673 1.5-1.5 1.5z" fill="#455a64"></path></g><g id="XMLID_2243_"><path id="XMLID_967_" d="m30.5 31h-14c-.276 0-.5-.224-.5-.5s.224-.5.5-.5h14c.276 0 .5.224.5.5s-.224.5-.5.5z" fill="#455a64"></path></g><g id="XMLID_2244_"><path id="XMLID_968_" d="m30.5 28h-14c-.276 0-.5-.224-.5-.5s.224-.5.5-.5h14c.276 0 .5.224.5.5s-.224.5-.5.5z" fill="#455a64"></path></g><g id="XMLID_2245_"><path id="XMLID_969_" d="m30.5 25.188c-.276 0-.5-.224-.5-.5v-1.188c0-1.629-1.348-2.418-9.008-2.493-.276-.003-.498-.229-.495-.505.002-.276.208-.483.505-.495 6.914.068 9.998.588 9.998 3.493v1.188c0 .276-.224.5-.5.5z" fill="#455a64"></path></g><g id="XMLID_2246_"><path id="XMLID_970_" d="m30.5 26h-4c-.276 0-.5-.224-.5-.5v-1c0-.827.673-1.5 1.5-1.5h3c.276 0 .5.224.5.5v2c0 .276-.224.5-.5.5zm-3.5-1h3v-1h-2.5c-.276 0-.5.224-.5.5z" fill="#455a64"></path></g><g id="XMLID_2248_"><path id="XMLID_973_" d="m24.5 26c-.276 0-.5-.224-.5-.5 0-.827-.673-1.5-1.5-1.5h-3.5c-.276 0-.5-.224-.5-.5s.224-.5.5-.5h3.5c1.378 0 2.5 1.122 2.5 2.5 0 .276-.224.5-.5.5z" fill="#455a64"></path></g><g id="XMLID_2249_"><path id="XMLID_974_" d="m28.569 21.706c-.209 0-.405-.132-.475-.342l-1.749-5.256c-.12-.353-.541-.706-.899-.752-.848-.107-2.225-.249-3.966-.317-.276-.011-.491-.243-.48-.519s.26-.492.519-.48c1.776.069 3.184.214 4.053.324.737.094 1.477.707 1.721 1.425l1.75 5.259c.087.262-.055.545-.317.632-.051.018-.104.026-.157.026z" fill="#455a64"></path></g><g id="XMLID_2260_"><g id="XMLID_2261_"><path id="XMLID_976_" d="m19.363 8.026c-.115 0-.23-.04-.325-.12-.21-.18-.235-.495-.056-.705l1.31-1.533c.174-.204.258-.462.238-.728-.021-.266-.144-.508-.347-.681-.203-.175-.465-.258-.727-.238-.267.021-.509.144-.682.347l-.894 1.046c-.18.209-.496.234-.705.055s-.235-.495-.055-.705l.894-1.045c.346-.406.831-.653 1.365-.694.535-.039 1.05.127 1.455.475.405.346.652.831.694 1.363s-.127 1.049-.475 1.456l-1.309 1.533c-.099.115-.24.174-.381.174z" fill="#455a64"></path></g><g id="XMLID_2262_"><path id="XMLID_977_" d="m9.5 4h3c.276 0 .5-.224.5-.5s-.224-.5-.5-.5h-3c-.276 0-.5.224-.5.5s.224.5.5.5z" fill="#455a64"></path></g><g id="XMLID_2263_"><path id="XMLID_978_" d="m10.5 23h1c.276 0 .5-.224.5-.5s-.224-.5-.5-.5h-1c-.276 0-.5.224-.5.5s.224.5.5.5z" fill="#455a64"></path></g><g id="XMLID_2264_"><path id="XMLID_979_" d="m15.5 25h-5.001c-.276 0-.5-.224-.5-.5s.224-.5.5-.5h5.001c.827 0 1.5-.673 1.5-1.5v-1.24c0-.276.224-.5.5-.5s.5.224.5.5v1.24c0 1.378-1.122 2.5-2.5 2.5z" fill="#455a64"></path></g><g id="XMLID_2265_"><path id="XMLID_980_" d="m4.5 15.5c-.276 0-.5-.224-.5-.5v-11.5c0-1.378 1.122-2.5 2.5-2.5h9c1.378 0 2.5 1.122 2.5 2.5v6.5c0 .276-.224.5-.5.5s-.5-.224-.5-.5v-6.5c0-.827-.673-1.5-1.5-1.5h-9c-.827 0-1.5.673-1.5 1.5v11.5c0 .276-.224.5-.5.5z" fill="#455a64"></path></g><g id="XMLID_2266_"><path id="XMLID_981_" d="m11.5 31c-.276 0-.5-.224-.5-.5v-2.062c0-.251.186-.463.435-.496 1.283-.169 2.26-.725 3.075-1.751.172-.216.486-.254.702-.081.216.171.253.486.081.702-.892 1.125-1.947 1.784-3.293 2.05v1.638c0 .276-.224.5-.5.5z" fill="#455a64"></path></g><g id="XMLID_2267_"><path id="XMLID_982_" d="m17.81 13.62c-.474 0-.934-.171-1.295-.481-.406-.347-.653-.831-.697-1.359-.043-.532.124-1.049.473-1.456l.173-.211c.689-.82 2.013-.926 2.822-.233.406.349.652.834.692 1.369.04.534-.13 1.051-.478 1.457l-.161.199c-.378.456-.934.715-1.529.715zm.18-3.219c-.294 0-.57.127-.757.351l-.176.215c-.18.21-.264.467-.242.731.022.265.146.507.351.682.408.349 1.069.289 1.4-.109l.167-.206c.184-.215.269-.474.249-.742s-.143-.51-.346-.685c-.18-.152-.409-.237-.646-.237z" fill="#455a64"></path></g><g id="XMLID_2268_"><path id="XMLID_985_" d="m17.57 17.64c-.481 0-.929-.167-1.295-.481-.405-.347-.653-.831-.696-1.359-.043-.532.124-1.049.473-1.456l.761-.881c.673-.801 2.003-.908 2.814-.213.404.34.653.823.697 1.356.043.534-.124 1.052-.472 1.459l-.762.881c-.391.443-.944.694-1.52.694zm.75-3.873c-.291 0-.563.125-.748.345l-.764.885c-.172.201-.255.458-.234.721.022.265.146.507.351.682.405.348 1.05.295 1.41-.11l.757-.876c.172-.201.255-.459.233-.726-.021-.266-.145-.505-.347-.675-.186-.16-.418-.246-.658-.246z" fill="#455a64"></path></g><g id="XMLID_2269_"><path id="XMLID_988_" d="m17.52 21.76c-.474 0-.934-.17-1.295-.48-.841-.721-.941-1.988-.225-2.825l.764-.874c.687-.802 2.013-.913 2.822-.22.406.348.652.833.692 1.368.04.533-.13 1.05-.478 1.457l-.763.874c-.366.44-.922.7-1.517.7zm.769-3.879c-.296 0-.576.129-.769.354l-.764.874c-.355.415-.303 1.049.119 1.412.406.349 1.07.289 1.399-.109l.769-.88c.171-.2.257-.459.237-.727-.02-.267-.143-.51-.346-.684-.179-.155-.408-.24-.645-.24z" fill="#455a64"></path></g><g id="XMLID_2270_"><path id="XMLID_998_" d="m1.5 31c-.276 0-.5-.224-.5-.5v-20.963c0-.276.224-.5.5-.5l.142-.007c.47-.03 1.567-.102 2.394.673.64.599.964 1.563.964 2.865v4.473c.833.618 3.602 2.988 3.951 7.421.021.275-.184.516-.46.538-.275.023-.516-.184-.538-.459-.362-4.602-3.69-6.797-3.724-6.818-.142-.094-.229-.252-.229-.422v-4.733c0-1.014-.218-1.732-.648-2.135-.402-.378-.947-.427-1.352-.42v20.487c0 .276-.224.5-.5.5z" fill="#455a64"></path></g></g><g id="XMLID_2202_"><g id="XMLID_2274_"><path id="XMLID_1001_" d="m11 17c-.142 0-.277-.06-.372-.166-.146-.163-3.59-4.023-3.59-7.005 0-2.111 1.777-3.829 3.962-3.829s3.962 1.718 3.962 3.829c0 2.982-3.444 6.842-3.59 7.005-.095.106-.23.166-.372.166zm0-10c-1.633 0-2.962 1.269-2.962 2.829 0 2.072 2.092 4.838 2.962 5.898.869-1.061 2.962-3.829 2.962-5.898 0-1.56-1.329-2.829-2.962-2.829z" fill="#455a64"></path></g><g id="XMLID_2275_"><path id="XMLID_1008_" d="m11 11.444c-.827 0-1.5-.673-1.5-1.5s.673-1.5 1.5-1.5 1.5.673 1.5 1.5-.673 1.5-1.5 1.5zm0-2c-.276 0-.5.224-.5.5s.224.5.5.5.5-.224.5-.5-.224-.5-.5-.5z" fill="#455a64"></path></g></g><g id="XMLID_3098_"><path id="XMLID_975_" d="m23.5 13h-2.5c-.276 0-.5-.224-.5-.5s.224-.5.5-.5h2.5c.276 0 .5.224.5.5s-.224.5-.5.5z" fill="#455a64"></path></g></g></g></svg>