<svg xmlns="http://www.w3.org/2000/svg" id="Layer_30" height="512" viewBox="0 0 496 496" width="512"><g><g><g><path d="m49.21 98.11 70.79-10.11 38.68-64.46c5.78-9.64 16.2-15.54 27.44-15.54h106.1c12.12 0 23.2 6.85 28.62 17.69l31.16 62.31h24c8.75 0 16.95 2.34 24.01 6.42l-.01.02c-14.34 8.3-24 23.8-24 41.56 0 4.42 1.79 8.42 4.68 11.32 2.9 2.89 6.9 4.68 11.32 4.68h32v42.03c-2.44 1.11-4.69 2.66-6.63 4.6l-1.37 1.37-.84-1.69c-2.2-4.39-5.53-7.96-9.55-10.44-4.01-2.49-8.71-3.87-13.61-3.87-6.35 0-12.35 2.32-16.97 6.34l-.01-.01c-4.47-21.88-23.82-38.33-47.02-38.33-4.07 0-8.01.5-11.78 1.46v-65.46l-24-48h-106.1l-28.8 48v96h-8.05c-6.59-18.64-24.37-32-45.27-32s-38.68 13.36-45.27 32h-50.73v-38.37c0-1.04.03-2.08.1-3.11h.01c5.08 5.85 12.11 9.48 19.89 9.48 15.46 0 28-14.33 28-32 0-8.41-2.84-16.06-7.49-21.77v-.01c.23-.04.46-.08.7-.11z" fill="#ff826e"></path></g><g><path d="m424 136v16h-32c-4.42 0-8.42-1.79-11.32-4.68-2.89-2.9-4.68-6.9-4.68-11.32 0-17.76 9.66-33.26 24-41.56l.01-.02c14.34 8.3 23.99 23.81 23.99 41.58z" fill="#fcd770"></path></g><g><path d="m292.22 40 24 48h-158.9l28.8-48z" fill="#69d6f4"></path></g><g><path d="m316.22 88v65.46c-15.61 3.93-28.18 15.52-33.49 30.54h-125.41v-96z" fill="#fc6e51"></path></g><g><path d="m316.4 274.16c-1.26 1.78-2.29 3.74-3.03 5.84h-305.37v-32h96 208c0 9.02 1.52 17.85 4.4 26.16z" fill="#ccd1d9"></path></g><g><path d="m282.73 184c5.31-15.02 17.88-26.61 33.49-30.54 3.77-.96 7.71-1.46 11.78-1.46 23.2 0 42.55 16.45 47.02 38.33l.01.01c-2.53 2.19-4.64 4.87-6.19 7.97l-.84 1.69-1.37-1.37c-2.13-2.13-4.63-3.78-7.34-4.91-2.72-1.12-5.66-1.72-8.66-1.72-12.5 0-22.63 10.13-22.63 22.63v1.37c-9.81 4.9-16 14.93-16 25.89v3.38c-13.64-4.82-24.45-15.63-29.26-29.27-1.78-5-2.74-10.39-2.74-16s.96-11 2.73-16z" fill="#969faa"></path></g><g><path d="m149.27 216c-6.59 18.64-24.37 32-45.27 32s-38.68-13.36-45.27-32c-1.77-5-2.73-10.39-2.73-16s.96-11 2.73-16c6.59-18.64 24.37-32 45.27-32s38.68 13.36 45.27 32c1.77 5 2.73 10.39 2.73 16s-.96 11-2.73 16z" fill="#969faa"></path></g><g><path d="m472 241.89v6.11c0 9.02-1.52 17.85-4.4 26.16-4.35-6.15-11.51-10.16-19.6-10.16h-8.07c-.97-13.42-12.16-24-25.82-24-2.01 0-4.01.24-5.95.69-1.94.46-3.83 1.15-5.63 2.04l-10.53 5.27-10.53-5.27c-3.6-1.79-7.56-2.73-11.58-2.73-7.15 0-13.62 2.9-18.31 7.58-4.26 4.27-7.05 10.02-7.51 16.42h-8.07c-6.62 0-12.62 2.69-16.97 7.03-.96.96-1.84 2.01-2.63 3.13-2.88-8.31-4.4-17.14-4.4-26.16v-2.73-3.38c0-10.96 6.19-20.99 16-25.89v-1.37c0-12.5 10.13-22.63 22.63-22.63 3 0 5.94.6 8.66 1.72 2.71 1.13 5.21 2.78 7.34 4.91l1.37 1.37.84-1.69c1.55-3.1 3.66-5.78 6.19-7.97 4.62-4.02 10.62-6.34 16.97-6.34 4.9 0 9.6 1.38 13.61 3.87 4.02 2.48 7.35 6.05 9.55 10.44l.84 1.69 1.37-1.37c1.94-1.94 4.19-3.49 6.63-4.6 2.92-1.33 6.11-2.03 9.37-2.03 6.25 0 11.91 2.53 16 6.63 4.1 4.09 6.63 9.75 6.63 16v1.37c4.9 2.45 8.9 6.18 11.68 10.67 2.77 4.49 4.32 9.74 4.32 15.22z" fill="#b27946"></path></g><g><path d="m450.41 375.65-34.41-7.65-8 5.33v26.67c0 8.84-7.16 16-16 16-4.42 0-8.42-1.79-11.32-4.68-2.89-2.9-4.68-6.9-4.68-11.32v-26.67l-8-5.33-34.41 7.65c-1.92.42-3.79.96-5.61 1.6h-.01c-.51 20.36-13.7 37.55-31.97 44.01v34.74c8.84 0 16 7.16 16 16 0 4.42-1.79 8.42-4.68 11.32-2.9 2.89-6.9 4.68-11.32 4.68h48v-32h96v32h48v-65.5c0-22.49-15.63-41.97-37.59-46.85z" fill="#fcd770"></path></g><g><path d="m344 456h96v32h-96z" fill="#ffc729"></path></g><g><path d="m408 373.33v26.67c0 8.84-7.16 16-16 16-4.42 0-8.42-1.79-11.32-4.68-2.89-2.9-4.68-6.9-4.68-11.32v-26.67l16 10.67z" fill="#969faa"></path></g><g><path d="m328 376c0 .42-.01.84-.03 1.25-.51 20.36-13.7 37.55-31.97 44.01v34.74h-8c-4.42 0-8 3.58-8 8v-16c0-4.42-3.58-8-8-8h-8v-18.74c-18.64-6.59-32-24.36-32-45.26s13.36-38.67 32-45.26v29.26c0 4.42 1.79 8.42 4.68 11.32 2.9 2.89 6.9 4.68 11.32 4.68 8.84 0 16-7.16 16-16v-29.26c18.64 6.59 32 24.36 32 45.26z" fill="#ccd1d9"></path></g><g><path d="m280 464v16c0 4.42-3.58 8-8 8h-8c-8.84 0-16-7.16-16-16v-16c0-8.84 7.16-16 16-16h8c4.42 0 8 3.58 8 8z" fill="#f0d0b4"></path></g><g><path d="m296 456c8.84 0 16 7.16 16 16 0 4.42-1.79 8.42-4.68 11.32-2.9 2.89-6.9 4.68-11.32 4.68h-8c-4.42 0-8-3.58-8-8v-16c0-4.42 3.58-8 8-8z" fill="#f0d0b4"></path></g><g><path d="m467.6 274.16c2.77 3.91 4.4 8.69 4.4 13.84 0 6.62-2.69 12.62-7.03 16.97-4.35 4.34-10.35 7.03-16.97 7.03h-8v-46.11c0-.64-.02-1.27-.07-1.89h8.07c8.09 0 15.25 4.01 19.6 10.16z" fill="#f0d0b4"></path></g><g><path d="m440 312v2.59c0 13.38-6.68 25.87-17.81 33.28l-2.63 1.76c-2.22 1.48-3.56 3.98-3.56 6.65v11.72l-8 5.33-16 10.67-16-10.67-8-5.33v-11.72c0-2.67-1.34-5.17-3.56-6.65l-2.63-1.76c-11.13-7.41-17.81-19.9-17.81-33.28v-2.59-46.11c0-.64.02-1.27.07-1.89.46-6.4 3.25-12.15 7.51-16.42 4.69-4.68 11.16-7.58 18.31-7.58 4.02 0 7.98.94 11.58 2.73l10.53 5.27 10.53-5.27c1.8-.89 3.69-1.58 5.63-2.04 1.94-.45 3.94-.69 5.95-.69 13.66 0 24.85 10.58 25.82 24 .05.62.07 1.25.07 1.89z" fill="#f0d0b4"></path></g><g><path d="m336 264h8.07c-.05.62-.07 1.25-.07 1.89v46.11h-8c-13.25 0-24-10.75-24-24 0-2.8.48-5.5 1.37-8 .74-2.1 1.77-4.06 3.03-5.84.79-1.12 1.67-2.17 2.63-3.13 4.35-4.34 10.35-7.03 16.97-7.03z" fill="#f0d0b4"></path></g><g><path d="m282.74 216h-133.47c1.77-5 2.73-10.39 2.73-16s-.96-11-2.73-16h8.05 125.41c-1.77 5-2.73 10.39-2.73 16s.96 11 2.74 16z" fill="#ccd1d9"></path></g><g><circle cx="104" cy="200" fill="#ccd1d9" r="16"></circle></g><g><path d="m8 184h50.73c-1.77 5-2.73 10.39-2.73 16s.96 11 2.73 16h-34.73c-8.84 0-16-7.16-16-16z" fill="#ccd1d9"></path></g><g><path d="m48.51 98.23c4.65 5.71 7.49 13.36 7.49 21.77 0 17.67-12.54 32-28 32-7.78 0-14.81-3.63-19.89-9.48h-.01c1.43-22.28 18.14-40.79 40.41-44.3z" fill="#fcd770"></path></g></g><g><path d="m104 176c-13.234 0-24 10.766-24 24s10.766 24 24 24 24-10.766 24-24-10.766-24-24-24zm0 32c-4.411 0-8-3.589-8-8s3.589-8 8-8 8 3.589 8 8-3.589 8-8 8z"></path><path d="m452.148 367.838-28.148-6.255v-5.301l2.625-1.75c11.869-7.913 19.483-20.553 21.057-34.531h.318c17.645 0 32-14.355 32-32 0-5.36-1.331-10.413-3.67-14.856 2.435-8.159 3.67-16.599 3.67-25.144v-6.111c0-12.426-6.092-23.745-16.177-30.563-1.652-15.343-14.677-27.327-30.45-27.327-.46 0-.916.025-1.373.045v-48.045c0-30.878-25.122-56-56-56h-19.056l-28.944-57.889c-6.82-13.638-20.529-22.111-35.777-22.111h-106.105c-13.97 0-27.113 7.441-34.3 19.42l-36.719 61.199-67.019 9.574c-27.41 3.916-48.08 27.748-48.08 55.437v54.37c0 13.234 10.766 24 24 24h29.414c2.857 5.997 6.752 11.405 11.447 16h-64.861v48h304c0 17.645 14.355 32 32 32h.317c1.574 13.978 9.188 26.618 21.057 34.531l2.626 1.75v5.301l-24.72 5.494c-3.231-19.96-17.132-36.988-36.613-43.876-2.45-.865-5.166-.49-7.286 1.01-2.121 1.5-3.381 3.935-3.381 6.532v29.258c0 4.411-3.589 8-8 8s-8-3.589-8-8v-29.258c0-2.597-1.261-5.033-3.381-6.532s-4.837-1.876-7.286-1.01c-22.33 7.895-37.333 29.113-37.333 52.8 0 21.748 12.646 41.415 32 50.599v6.777c-9.311 3.302-16 12.195-16 22.624v16c0 13.234 10.766 24 24 24h8 16 8 200v-73.496c0-26.449-18.033-48.928-43.852-54.666zm-4.148-63.838v-32c8.822 0 16 7.178 16 16s-7.178 16-16 16zm-32-168v8h-24c-4.411 0-8-3.589-8-8 0-12.613 6.037-24.468 16.006-31.973 9.706 7.305 15.994 18.918 15.994 31.973zm-291.099-40.619 40.637-67.729c4.313-7.187 12.198-11.652 20.58-11.652h106.105c9.149 0 17.375 5.083 21.466 13.267l33.367 66.733h28.944c2.753 0 5.441.28 8.039.812-10.119 10.346-16.039 24.397-16.039 39.188 0 13.234 10.766 24 24 24h24v25.948c-6.243-6.287-14.785-9.948-24-9.948-4.328 0-8.506.814-12.371 2.32-8.592-20.391-28.841-34.32-51.629-34.32-1.271 0-2.527.058-3.777.142v-58.03l-27.056-54.112h-115.578l-32.271 53.784v81.374c-10.188-14.019-26.701-23.158-45.318-23.158-22.294 0-41.581 13.098-50.586 32h-37.414v-18.263c3.797 1.483 7.838 2.263 12 2.263 19.851 0 36-17.944 36-40 0-5.387-.977-10.65-2.818-15.516zm152.513 80.619h-21.414v-80h52.223v51.618c-13.556 5.135-24.616 15.382-30.809 28.382zm-21.414-96v-32h31.278l16 32zm-16 0h-68.553l19.2-32h49.353zm-74.682 16h74.682v80h-74.682zm-5.899 96h113.161c-.376 2.614-.581 5.283-.581 8 0 2.705.205 5.375.585 8h-113.165c.376-2.614.581-5.283.581-8s-.205-5.386-.581-8zm-4.833 32h122.842c2.832 5.957 6.692 11.379 11.4 16h-145.69c4.696-4.595 8.591-10.003 11.448-16zm150.528 8.813c-10.528-7.362-17.114-19.544-17.114-32.813 0-22.056 17.944-40 40-40 17.537 0 32.969 11.54 38.149 27.959-.047.056-.098.109-.145.165-4.62-2.69-9.888-4.125-15.376-4.125-15.773 0-28.799 11.984-30.451 27.326-7.559 5.111-12.874 12.75-15.063 21.488zm-260.223-125.603c2.017 3.805 3.109 8.206 3.109 12.79 0 13.234-8.972 24-20 24-4.167 0-8.159-1.574-11.522-4.445 2.376-15.275 13.544-28.02 28.413-32.345zm-20.891 100.79c-4.411 0-8-3.589-8-8v-8h32.581c-.376 2.614-.581 5.283-.581 8s.205 5.386.581 8zm40-8c0-22.056 17.944-40 40-40s40 17.944 40 40-17.944 40-40 40-40-17.944-40-40zm-48 72v-16h288.374c.493 5.415 1.492 10.762 2.979 16zm304 16c0-8.822 7.178-16 16-16v32c-8.822 0-16-7.178-16-16zm17.476-32h-1.476c-5.431 0-10.547 1.364-15.032 3.761-.642-3.876-.968-7.804-.968-11.761v-6.111c0-7.984 4.437-15.163 11.578-18.733l4.422-2.211v-6.317c0-8.065 6.562-14.627 14.627-14.627 3.907 0 7.581 1.521 10.343 4.284l9.22 9.22 5.81-11.616c3.05-6.1 9.181-9.889 16-9.889s12.95 3.789 16 9.89l5.809 11.615 9.22-9.22c2.763-2.763 6.436-4.284 10.343-4.284 8.065 0 14.627 6.562 14.627 14.627v6.317l4.422 2.211c7.141 3.571 11.578 10.749 11.578 18.733v6.111c0 3.957-.326 7.885-.968 11.761-4.484-2.397-9.6-3.761-15.031-3.761h-1.476c-4.242-13.877-17.166-24-32.413-24-5.234 0-10.475 1.237-15.155 3.578l-6.956 3.478-6.956-3.478c-4.681-2.34-9.921-3.578-15.155-3.578-15.247 0-28.171 10.123-32.413 24zm14.524 58.593v-48.704c0-9.864 8.025-17.889 17.889-17.889 2.763 0 5.529.653 8 1.888l14.111 7.056 14.111-7.056c2.471-1.235 5.237-1.888 8-1.888 9.864 0 17.889 8.025 17.889 17.889v48.704c0 10.724-5.327 20.677-14.25 26.625l-2.625 1.75c-4.461 2.975-7.125 7.951-7.125 13.313v7.438l-16 10.667-16-10.667v-7.438c0-5.361-2.664-10.338-7.125-13.313l-2.626-1.75c-8.922-5.948-14.249-15.902-14.249-26.625zm40 93.407c-4.411 0-8-3.589-8-8v-11.719l8 5.333 8-5.333v11.719c0 4.411-3.589 8-8 8zm-56.502-24.582 30.905-6.868 1.597 1.065v22.385c0 10.429 6.689 19.321 16 22.624v25.376h-32v-32h-16v64h-17.376c.888-2.504 1.376-5.195 1.376-8 0-10.429-6.689-19.322-16-22.624v-22.777c17.125-8.127 28.99-24.461 31.498-43.181zm96.502 96.582h-32v-16h32zm-48 0h-32v-16h32zm-144-104c0-12.789 6.123-24.57 16-31.996v15.996c0 13.233 10.766 24 24 24s24-10.767 24-24v-15.996c9.877 7.426 16 19.207 16 31.996 0 16.919-10.717 32.076-26.667 37.715-3.196 1.13-5.333 4.152-5.333 7.542v26.743c0-8.822-7.178-16-16-16v-10.742c0-3.39-2.137-6.412-5.333-7.542-15.951-5.64-26.667-20.797-26.667-37.716zm24 104c-4.411 0-8-3.589-8-8v-16c0-4.411 3.589-8 8-8h8l.005 15.899c0 .034-.005.067-.005.101v16zm24 0v-16h8c4.411 0 8 3.589 8 8s-3.589 8-8 8zm192 0h-32v-64h-16v32h-32v-25.376c9.311-3.303 16-12.195 16-22.624v-22.385l1.597-1.065 31.081 6.907c18.442 4.098 31.322 20.155 31.322 39.047z"></path><path d="m392 336c13.234 0 24-10.766 24-24h-16c0 4.411-3.589 8-8 8s-8-3.589-8-8h-16c0 13.234 10.766 24 24 24z"></path></g></g></svg>