<svg xmlns="http://www.w3.org/2000/svg" id="Layer_4" viewBox="0 0 512 512" data-name="Layer 4"><g><rect fill="#eef4fc" height="363.339" rx="20" width="492" x="10" y="35.243"></rect><path d="m340.8095703 81.7626953h-80.1884766c-1.3261719 0-2.5976562.5268555-3.5351562 1.4643555l-53.1875 53.1884766c-3.1550003 3.0626167-.8229016 8.6152876 3.5352849 8.5355756 1.2791683.0000689 2.5594417-.4882124 3.5350276-1.4642866l51.7236328-51.7241211h78.1171875c6.6026115-.2007977 6.6131054-9.795697 0-10z" fill="#fb5657"></path><path d="m250.5878906 183.1057129-43.1547852-43.154541-30.690918-30.6911621c-3.6247559-3.6247559-8.5407715-5.6608887-13.666748-5.6608887h-153.0754394v170.2114258h186.1791992z" fill="#d13b42"></path><path d="m10 183.1057129h66.8642578l-32.4882812-60.1791992h-34.3759766z" fill="#afeeff"></path><path d="m10 345.8064738h492v32.7746582c0 11.0383005-8.9616995 20-20 20h-452c-11.0383005 0-20-8.9616995-20-20z" fill="#70d6f9"></path><path d="m324.7761183 446.4163606h-137.5522519l26.1420448-47.8352229h85.2681623z" fill="#3cabdc"></path><path d="m349.4310458 476.7574291h-186.8621069c-6.9549641 0-11.7859408-6.9237808-9.3855207-13.4513768l3.8027644-10.3410685c1.4467556-3.9342428 5.1936991-6.5486232 9.3855207-6.5486232h179.2565781c4.1918216 0 7.9387651 2.6143804 9.3855207 6.5486232l3.8027644 10.3410685c2.4004202 6.527596-2.4305565 13.4513768-9.3855207 13.4513768z" fill="#f6ca54"></path><circle cx="131.347" cy="273.803" fill="#5b5d60" r="36.55"></circle><path d="m131.3471545 286.1927718c-6.831706 0-12.3903119-5.558134-12.3903119-12.38984s5.5586059-12.38984 12.3903119-12.38984 12.3893682 5.558134 12.3893682 12.38984-5.5576622 12.38984-12.3893682 12.38984z" fill="#e5e5e5"></path><rect fill="#afeeff" height="19.328" rx="9.664" width="145.247" x="186.515" y="254.483"></rect><path d="m312.1411288 183.1057454-106.0041642.0000004c-10.2562269 0-18.7191793 8.0104524-19.305466 18.2499084-1.0167655 17.7577388 5.3138803 36.8950024 16.1968021 53.127216h112.2215529c10.8827992-16.2323344 17.2134164-35.3695716 16.196743-53.1271785-.5862389-10.2394734-9.0492262-18.2499463-19.3054678-18.2499462z" fill="#fb5657"></path><path d="m292.4900192 235.1551538h-66.7019571l-8.1441845 19.3277163h82.9903261z" fill="#2a4d74"></path><path d="m186.8542197 201.0945707c-.1411871 2.3158209-.1572924 4.655456-.0548777 7.0093301h17.74802c10.674403 0 19.3277163-8.6533134 19.3277163-19.3277163v-5.6704387h-17.7327825c-10.1552938 0-18.6700928 7.8523517-19.2880761 17.9888249z" fill="#f6ca54"></path><path d="m294.402958 183.1057458v5.6704387c0 10.674403 8.6533134 19.3277163 19.3277163 19.3277163h17.7481379c.1024146-2.3538741.0863093-4.6935092-.0548777-7.0093301-.6179833-10.1364732-9.1327823-17.9888249-19.2880761-17.9888249z" fill="#f6ca54"></path><path d="m250.5878942 183.1057458h-149.8985581l-32.4885472-60.179223h122.2078823z" fill="#afeeff"></path><rect fill="#70d6f9" height="110.445" rx="20" width="110.445" x="362.714" y="199.908"></rect><rect fill="#f6ca54" height="34.003" rx="10" width="110.445" x="362.714" y="131.902"></rect><rect fill="#fb5657" height="34.003" rx="10" width="110.445" x="362.714" y="70.697"></rect><path d="m76.8642578 183.1057129h-66.8642578v90.704834h46.1413574v-.0075684c0-26.8146973 14.1169434-50.3808594 35.298584-63.6989746z" fill="#fb5657"></path><path d="m167.8964844 273.8105469c-.0041504 20.1821289-16.3662109 36.5419922-36.5493164 36.5419922h27.6149902c20.1833496 0 36.5456543-16.3598633 36.5495605-36.5419922h-27.6152344z" fill="#4d4d4d"></path><path d="m280.5322266 273.8105469c-.0041504 20.1821289-16.3662109 36.5419922-36.5493164 36.5419922h27.6152344c20.1831055 0 36.545166-16.3598633 36.5493164-36.5419922z" fill="#4d4d4d"></path><path d="m207.4333496 273.8105469c.0041504 20.1821289 16.3662109 36.5419922 36.5495605 36.5419922 20.1831055 0 36.545166-16.3598633 36.5493164-36.5419922h-73.098877z" fill="#5b5d60"></path><path d="m131.347168 217.9257812c-30.8110352 0-55.8776855 25.0664062-55.8776855 55.8771973h19.3278809c0-20.185791 16.3637695-36.5495605 36.5495605-36.5495605s36.5495605 16.3637695 36.5495605 36.5495605h19.3273926c0-30.810791-25.0666504-55.8771973-55.876709-55.8771973z" fill="#fb5657"></path><path d="m382.7143555 310.3525391h70.4448242c11.0458984 0 20-8.9543457 20-20v-60.3654785l-12.935791 26.7958984c-1.0544434 2.184082-3.2214355 3.6137695-5.6442871 3.723877l-2.3586426.1074219c-3.057373.138916-5.8093262-1.8422852-6.6474609-4.7861328l-6.2609863-21.9899902c-1.0253906-3.6013184-5.9938965-3.9455566-7.5063477-.5205078l-2.907959 6.5856934c-.9377441 2.1235352-2.9216309 3.5981445-5.2253418 3.8840332l-3.986084.4943848c-2.626709.3256836-4.8046875 2.189209-5.532959 4.7338867l-3.8027344 13.2866211c-1.5834961 5.5334473-8.996582 6.5302734-11.9855957 1.6118164l-7.4018555-12.1801758c-2.5187988-4.1450195-8.498291-4.248291-11.1589355-.1928711l-17.0898438 26.050293v12.7612305c0 11.0456543 8.9543457 20 20 20z" fill="#b2e26d"></path><path d="m44.3759766 122.9267578v-.0002441 60.1791992h32.4882812z" fill="#70d6f9"></path></g><g fill="#00183f"><path d="m482.0000918 30.2426882h-452c-13.7851562 0-25 11.2148438-25 25 .0681615 31.9954061-.0491285 96.0758057.0001492 127.8631514-.0001492-.0003585-.0001492 195.4752275-.0001492 195.4752275 0 13.7851562 11.2148438 25 25 25h157.8886719c6.5683859-.2225515 6.6585531-9.7588077-.0001145-10.0000227.0001145.0000227-157.8885574.0000227-157.8885574.0000227-8.2714844 0-15-6.7290039-15-15v-27.7744141h458.1591797c2.7617188 0 5-2.2387695 5-5s-2.2382812-5-5-5h-458.1591797v-152.7011719c14.6768279.0000001 44.2058943 0 58.8818359 0l10.9980469 20.3735352c-19.8530273 14.1181641-32.0981445 36.1247559-33.5839844 60.331543h-20.6972656c-6.6043983.2019747-6.6117022 9.7958111.0001107 10.0000023-.0001107-.0000023 59.5106315-.0000023 59.5106315-.0000023 2.4821822 20.5567235 20.0236072 36.5425223 41.2382812 36.5419922h27.6142578c21.2133789 0 38.7548828-15.9863281 41.2373047-36.5419922h2.546875c2.4824219 20.5556641 20.0239258 36.5419922 41.2363281 36.5419922h27.6152344c21.2133789 0 38.7548828-15.9863281 41.2373047-36.5419922h9.2636719c18.2568609-.5733232 19.8832426-26.217158 1.9819336-29.1774902 9.1032135-16.3380282 13.5229633-33.544458 12.2476422-49.8564333-1.2065121-12.2737963-11.9350026-21.7284713-24.1925255-21.6706107-11.6338625-.0002398-49.3189252.0000772-61.5477985-.000056-30.1953999-.0006525-115.5202262.000471-146.9160096.0000004l-27.0888672-50.1791992h111.7553711l36.059082 36.059082c.9755859.9760742 2.2558594 1.4643555 3.5351562 1.4643555 4.3200583.1080997 6.7077633-5.505579 3.5349918-8.5356966.0001645.0000521-16.9632145-16.9633268-16.9632145-16.9633268l48.1879883-48.1884766h78.1171875c2.7617188 0 5-2.2387695 5-5s-2.2382812-5-5-5h-80.1884766c-1.3261719 0-2.5976562.5268555-3.5351562 1.4643555l-49.6523438 49.6533203-27.15625-27.15625c-4.5947266-4.5947266-10.7041016-7.125-17.2021484-7.125h-130.9072265c-6.5621758.2039769-6.668264 9.7555128.0001008 10.000009-.0001008-.000009 130.9071258-.000009 130.9071258-.000009 3.8271484 0 7.4248047 1.4902344 10.1318359 4.1962891l5.1313477 5.1313477h-110.137207c-1.7607422 0-3.3916016.9262695-4.2939453 2.4384766s-.9423828 3.387207-.1054688 4.9370117l32.4882812 60.1791992c.8720703 1.6166992 2.5615234 2.6245117 4.3994141 2.6245117h85.7539062c-4.3975782 5.6574629-5.0696895 13.2050345-4.6345216 20.2439586.4174806 9.305846 2.5742189 19.0753773 6.3688966 28.6481312 1.0185547 2.5668945 3.9248047 3.8212891 6.4912109 2.8051758 2.5673828-1.0175781 3.8232422-3.9233398 2.8056641-6.4907227-2.6801758-6.7597656-4.4465332-13.5935059-5.2495117-20.2084961h12.3217773c13.6610892.0216029 24.695095-11.3557339 24.328125-24.9980469h60.5283203c-.3667085 13.6425697 10.6668807 25.0194794 24.3271745 24.9980213-.0000261.0000256 12.3009993.0000256 12.3009993.0000256-1.4775391 12.0603027-6.1569824 24.7646484-13.5061035 36.3789062h-8.5727539l-6.8549805-16.269043c-.7802734-1.8535156-2.5957031-3.0585938-4.6074219-3.0585938h-66.7021484c-2.0107422 0-3.8261719 1.2050781-4.6074219 3.0585938l-6.8557129 16.269043h-18.1452637c-2.9711914 0-5.7348633.8942871-8.0473633 2.4189453-19.8344676-51.3867036-93.2738019-51.9269422-113.6235855.0911592-.9921372 2.5763213.2930191 5.4693877 2.8701675 6.4615752 2.5761719.9897461 5.4697266-.2929688 6.4619141-2.8706055 19.9669455-49.7875283 92.304496-39.8114913 98.1350098 13.2265625h-9.3898926c-7.0758093-48.4841367-75.4214478-48.4485909-82.4785156 0h-28.7851562c1.5661621-22.2919922 13.5654297-42.3935547 32.7783203-54.4736328 2.2294922-1.4013672 2.9892578-4.2915039 1.7382812-6.6079102l-14.5751953-26.9990234-32.4882812-60.1787109c-.4121818-.7331464-.9857295-1.3664583-1.69484-1.8200534-.7965879-.5292524-1.749969-.7862998-2.704573-.8044658-.000001.0000075-29.3759775.0000075-29.3759775.0000075v-62.684082c0-8.2709961 6.7285156-15 15-15h452c8.2714844 0 15 6.7290039 15 15v323.3383789c0 8.2709961-6.7285156 15-15 15-.1030014.0928943-268.9390864-.0924045-269.0422809.021341-2.2267993.1043774-4.0947316 1.6513476-4.6212933 3.7557586l-24.0783691 44.0583496h-17.8859863c-6.2607422 0-11.9189453 3.9477539-14.078125 9.8227539l-3.8027344 10.3413086c-1.6914062 4.5981445-1.0273438 9.7416992 1.7763672 13.7597656s7.4023438 6.4169922 12.3017578 6.4169922h186.8613281c4.8994141 0 9.4980469-2.3989258 12.3017578-6.4169922s3.4677734-9.1616211 1.7763672-13.7597656l-3.8017578-10.3408203c-2.1601562-5.8754883-7.8183594-9.8232422-14.0791016-9.8232422h-17.8859863l-12.4099121-22.7070312c-3.3478924-5.6997849-11.766049-1.1014848-8.7753401 4.795996-.0000505-.0000976 9.789012 17.9110353 9.789012 17.9110353h-120.6914062l20.6774902-37.8354492h265.6682129c13.7851562 0 25-11.2148438 25-25v-323.3383791c0-13.7851562-11.2148438-25-25-25zm-263.125 158.5336914c0 7.9003906-6.4277344 14.3276367-14.328125 14.3276367h-12.78125c-.2506062-7.4453721 5.3323066-14.1518149 12.7884513-14.9034829.4083104-.1712195 13.4631149-.0700802 14.3209237-.094564zm-59.9130859 116.5761718h-.6064453c7.8264169-6.6886473 13.0257828-16.3109519 14.2412109-26.5419922h17.5175781c-2.40625 15.0244141-15.4609375 26.5419922-31.1523438 26.5419922zm53.8691406-26.5419921h62.2998047c-1.4565341 9.3861628-7.4379782 17.8944489-15.7339224 22.5046137-18.839975 10.9022685-43.4654724-1.3571903-46.5658823-22.5046137zm58.7666015 26.5419921h-.6074219c7.8270587-6.6883047 13.0269437-16.3106456 14.2421875-26.5419922h17.5175781c-2.40625 15.0244141-15.4609375 26.5419922-31.1523438 26.5419922zm27.8056641-116.5761718v-.6704102c.9233044.0341005 13.8701995-.0886486 14.3247203.0949436 7.4396328.7522799 13.0608963 7.4599823 12.7722036 14.9031033h-12.7697754c-7.9003906 0-14.3271484-6.4272461-14.3271484-14.3276367zm-70.296875 51.3789062h60.0644531l3.9306641 9.3276367h-67.9248047zm-32.9267578 19.3276367c24.5179415.0001554 94.2696878-.0001118 119.0734922.0000003l6.8454531-.0000003c2.5712891 0 4.6640625 2.0922852 4.6640625 4.6635742 0 2.5717773-2.0927734 4.6640625-4.6640625 4.6640625h-13.9511719c-25.3230514-.0000529-86.2222309.0000382-111.9677756-.0000001-6.123144-.1971813-6.2159239-9.0948265.0000022-9.3276366zm-64.8330078-17.2294922c25.7040671-.1250637 40.730919 29.7942494 25.3780538 50.267243-5.9399465 7.9843042-15.1216724 12.8097913-25.3780353 12.8319019-41.8604766-1.7712547-41.8700056-61.3243648-.0000185-63.0991449zm-81.9707031-64.1479492v-35.392334l19.1064453 35.392334zm-10-50.1787109v50.1787109h-24.3759766v-50.1787109zm285.4003906 323.4897461h20.8515625c2.0869141 0 3.9726562 1.3154297 4.6933594 3.2739258l3.8027344 10.3413086c.5712891 1.5556641.3554688 3.2270508-.5927734 4.5864258s-2.4433594 2.1391602-4.1005859 2.1391602h-186.8613281c-3.3638093.1038378-5.9619103-3.5947962-4.6932476-6.7256434-.0001118.0000575 3.8035991-10.3417394 3.8035991-10.3417394.7197266-1.9580078 2.6054688-3.2734375 4.6923828-3.2734375h158.4042969z"></path><path d="m131.3467715 291.1928835c9.5888672 0 17.3896484-7.8012695 17.3896484-17.3901367-.9549492-23.0697872-33.8278634-23.0630721-34.7793297.000131.0000328 9.5887362 7.8008141 17.3900057 17.3896813 17.3900057zm0-24.7797852c4.0742188 0 7.3896484 3.3149414 7.3896484 7.3896484-.3882162 9.7968242-14.3925711 9.7940694-14.7793089-.0000761.000012-4.074631 3.3154417-7.3895724 7.3896605-7.3895724z"></path><path d="m382.713959 315.3525514h70.4453125c13.7851562 0 25-11.2148438 25-25v-70.4448242c0-13.7851562-11.2148438-25-25-25h-70.4453125c-13.7851562 0-25 11.2148438-25 25v70.4448326c0 13.7851479 11.2148438 24.9999916 25 24.9999916zm0-110.4448242h70.4453125c8.2714844 0 15 6.7290039 15 15v70.4448242c0 8.2709961-6.7285156 15-15 15h-70.4453125c-8.2714844 0-15-6.7290039-15-15v-11.2675781l16.2714844-24.8017578c.4208984-.640625 1.015625-.7241211 1.3652344-.7216797.3291016.0058594.9404297.1132812 1.3398438.769043l7.4013672 12.1796875c2.4296875 3.9985352 6.8271484 6.0913086 11.4580078 5.4731445 4.6386719-.6235352 8.3193359-3.8056641 9.6074219-8.3051758l3.8027344-13.2861328c.1777344-.6186523.7041016-1.0693359 1.3427734-1.1484375l3.984375-.4946289c4.0263672-.4990234 7.5458984-3.1147461 9.1845703-6.8256836l1.7890625-4.0527344 5.5039062 19.3261719c1.4794922 5.1982422 6.2861328 8.6503906 11.6835938 8.4121094l2.3583984-.1074219c6.5928853-.5218494 6.1719029-10.0733517-.4551646-9.9892657.0000865.0000079-2.3573354.1074298-2.3573354.1074298-.7509766.0239258-1.4082031-.4438477-1.6123047-1.1606445l-6.2617188-21.9902344c-2.2392787-8.0576528-13.5535128-8.8417297-16.8886754-1.1707674.0000035-.000131-2.9081996 6.5858065-2.9081996 6.5858065-.2255859.5117188-.7109375.8725586-1.2675781.9414062l-3.984375.4946289c-4.625.5732422-8.4423828 3.8388672-9.7246094 8.3198242l-3.8027344 13.2866211c-.4120007 1.3823558-2.1598596 1.5932294-2.9062524.3911794.0000024-.0000662-7.4013648-12.1797537-7.4013648-12.1797537-4.2413357-7.234407-15.1159251-7.4288743-19.6122937-.33919-.000011-.0001654-7.9101672 12.0567193-7.9101672 12.0567193v-40.9475098c0-8.2709961 6.7285156-15 15-15z"></path><path d="m357.713959 155.9047975c0 8.2709961 6.7285156 15 15 15h90.4453125c8.2714844 0 15-6.7290039 15-15v-14.0029297c0-8.2709961-6.7285156-15-15-15h-90.4453125c-8.2714844 0-15 6.7290039-15 15zm10-14.0029297c0-2.7568359 2.2431641-5 5-5h90.4453125c2.7568359 0 5 2.2431641 5 5v14.0029297c0 2.7568359-2.2431641 5-5 5h-90.4453125c-2.7568359 0-5-2.2431641-5-5z"></path><path d="m372.713959 109.6992311h90.4453125c8.2714844 0 15-6.7290039 15-15v-14.0029297c0-8.2709961-6.7285156-15-15-15h-90.4453125c-8.2714844 0-15 6.7290039-15 15v14.0029297c0 8.2709961 6.7285156 15 15 15zm-5-29.0029297c0-2.7568359 2.2431641-5 5-5h90.4453125c2.7568359 0 5 2.2431641 5 5v14.0029297c0 2.7568359-2.2431641 5-5 5h-90.4453125c-2.7568359 0-5-2.2431641-5-5z"></path><path d="m340.8096621 143.7417116h-34.6875c-1.3261719 0-2.5976562.5268555-3.5351562 1.4643555l-15.2490234 15.2480469c-1.953125 1.9526367-1.953125 5.1181641-.0009766 7.0712891 1.953018 1.9520473 5.1189952 1.9527537 7.0712892 0l13.7851561-13.7836914h32.6162109c2.7617188 0 5-2.2387695 5-5s-2.2382812-5-5-5z"></path></g></svg>